<svg width="42" height="42" viewBox="0 0 42 42" fill="none" xmlns="http://www.w3.org/2000/svg">
<g clip-path="url(#clip0_20_3615)">
<path d="M35.9276 17.6247C35.9781 11.7032 30.9347 6.27477 24.6852 5.52412C24.5609 5.50938 24.4255 5.48695 24.2821 5.46321C23.9728 5.41195 23.6528 5.35925 23.33 5.35925C22.0491 5.35925 21.7067 6.25899 21.6166 6.7956C21.5289 7.31734 21.6125 7.75547 21.8647 8.09838C22.2888 8.67517 23.0352 8.77756 23.6347 8.8596C23.8104 8.88386 23.9761 8.90643 24.1149 8.9376C29.7299 10.1923 31.6205 12.1648 32.5445 17.732C32.5671 17.8681 32.5773 18.0357 32.5881 18.2135C32.6284 18.8789 32.7124 20.2635 34.2009 20.2635H34.2011C34.325 20.2635 34.4581 20.2528 34.5968 20.2317C35.9829 20.021 35.9395 18.7554 35.9186 18.1473C35.9128 17.9761 35.9071 17.8141 35.9216 17.7063C35.9255 17.6792 35.9275 17.6519 35.9276 17.6247Z" fill="#EC1C24"/>
<path d="M22.9666 3.35061C23.1329 3.36261 23.2903 3.37409 23.4214 3.39417C32.6417 4.81213 36.882 9.18065 38.0571 18.4731C38.077 18.631 38.0802 18.8237 38.0834 19.0277C38.0952 19.7537 38.1193 21.264 39.7413 21.2953L39.7916 21.2958C40.3003 21.2958 40.7049 21.1424 40.9944 20.8396C41.4993 20.3114 41.4641 19.5269 41.4356 18.8963C41.4287 18.7417 41.4221 18.596 41.4237 18.4684C41.541 8.96465 33.3145 0.346696 23.8192 0.0262174C23.7798 0.024913 23.7423 0.027 23.7043 0.0323478C23.6857 0.035087 23.6511 0.0384783 23.5919 0.0384783C23.4972 0.0384783 23.3807 0.0302609 23.2572 0.021913C23.1078 0.0117391 22.9385 0 22.7669 0C21.2547 0 20.9673 1.07478 20.9305 1.71548C20.8457 3.19617 22.2781 3.30039 22.9666 3.35061Z" fill="#EC1C24"/>
<path d="M37.6122 30.4829C37.4161 30.3332 37.2134 30.1782 37.0237 30.0254C36.017 29.2152 34.946 28.4685 33.9102 27.7463C33.6952 27.5966 33.4803 27.4467 33.2661 27.2964C31.9393 26.3645 30.7465 25.9116 29.6195 25.9116C28.1017 25.9116 26.7783 26.7503 25.686 28.4041C25.2021 29.1372 24.615 29.4937 23.8915 29.4937C23.4637 29.4937 22.9775 29.3716 22.4468 29.1307C18.1642 27.1887 15.1062 24.2111 13.3574 20.2807C12.5121 18.3811 12.7861 17.1393 14.2739 16.1287C15.1187 15.5553 16.6912 14.4879 16.5798 12.4437C16.4537 10.1223 11.3318 3.13768 9.17375 2.34438C8.26005 2.00838 7.30005 2.00525 6.31527 2.33655C3.8344 3.17055 2.05409 4.6352 1.16635 6.5719C0.308484 8.44325 0.347223 10.6406 1.2784 12.9263C3.97031 19.5349 7.75501 25.2967 12.5277 30.0515C17.1994 34.7059 22.9413 38.5185 29.5937 41.383C30.1933 41.641 30.8223 41.7817 31.2815 41.8844C31.438 41.9196 31.5732 41.9496 31.6717 41.9766C31.7258 41.9913 31.7816 41.9993 31.8376 41.9998L31.8901 42.0001C31.8903 42.0001 31.8901 42.0001 31.8904 42.0001C35.0193 42.0001 38.7762 39.1409 39.93 35.8814C40.9409 33.0272 39.0952 31.6164 37.6122 30.4829Z" fill="#EC1C24"/>
<path d="M24.3505 10.8997C23.8148 10.9133 22.7 10.9409 22.3088 12.0764C22.1258 12.607 22.1477 13.0677 22.374 13.4457C22.7061 14.0003 23.3423 14.1702 23.9211 14.2635C26.0199 14.6003 27.0978 15.7609 27.3134 17.9157C27.4136 18.9204 28.0902 19.622 28.9589 19.622H28.959C29.0232 19.622 29.0888 19.6182 29.1541 19.6103C30.1989 19.486 30.7054 18.7184 30.6596 17.329C30.6763 15.8789 29.9174 14.2327 28.6268 12.9214C27.3317 11.6061 25.7705 10.8654 24.3505 10.8997Z" fill="#EC1C24"/>
</g>
<defs>
<clipPath id="clip0_20_3615">
<rect width="42" height="42" fill="white"/>
</clipPath>
</defs>
</svg>
