<svg width="20" height="20" viewBox="0 0 20 20" fill="none" xmlns="http://www.w3.org/2000/svg">
<g clip-path="url(#clip0_2_713)">
<path d="M15.625 20H4.375C3.34167 20 2.5 19.1592 2.5 18.125V9.375C2.5 8.34083 3.34167 7.5 4.375 7.5H15.625C16.6583 7.5 17.5 8.34083 17.5 9.375V18.125C17.5 19.1592 16.6583 20 15.625 20ZM4.375 8.75C4.03083 8.75 3.75 9.03 3.75 9.375V18.125C3.75 18.47 4.03083 18.75 4.375 18.75H15.625C15.9692 18.75 16.25 18.47 16.25 18.125V9.375C16.25 9.03 15.9692 8.75 15.625 8.75H4.375Z" fill="#EC1C24"/>
<path d="M14.375 8.75C14.03 8.75 13.75 8.47 13.75 8.125V5C13.75 2.9325 12.0675 1.25 10 1.25C7.9325 1.25 6.25 2.9325 6.25 5V8.125C6.25 8.47 5.97 8.75 5.625 8.75C5.28 8.75 5 8.47 5 8.125V5C5 2.2425 7.2425 0 10 0C12.7575 0 15 2.2425 15 5V8.125C15 8.47 14.72 8.75 14.375 8.75Z" fill="#EC1C24"/>
<path d="M9.99998 14.1667C9.08081 14.1667 8.33331 13.4192 8.33331 12.5C8.33331 11.5809 9.08081 10.8334 9.99998 10.8334C10.9191 10.8334 11.6666 11.5809 11.6666 12.5C11.6666 13.4192 10.9191 14.1667 9.99998 14.1667ZM9.99998 12.0834C9.77081 12.0834 9.58331 12.27 9.58331 12.5C9.58331 12.73 9.77081 12.9167 9.99998 12.9167C10.2291 12.9167 10.4166 12.73 10.4166 12.5C10.4166 12.27 10.2291 12.0834 9.99998 12.0834Z" fill="#EC1C24"/>
<path d="M10 16.6667C9.655 16.6667 9.375 16.3867 9.375 16.0417V13.75C9.375 13.405 9.655 13.125 10 13.125C10.345 13.125 10.625 13.405 10.625 13.75V16.0417C10.625 16.3867 10.345 16.6667 10 16.6667Z" fill="#EC1C24"/>
</g>
<defs>
<clipPath id="clip0_2_713">
<rect width="20" height="20" fill="white"/>
</clipPath>
</defs>
</svg>
