<svg width="30" height="30" viewBox="0 0 30 30" fill="none" xmlns="http://www.w3.org/2000/svg">
<g clip-path="url(#clip0_2_457)">
<path d="M15 0C10.05 0 6 4.05 6 9C6 13.95 15 25.5 15 25.5C15 25.5 24 13.95 24 9C24 4.05 19.95 0 15 0ZM15 12C13.35 12 12 10.65 12 9C12 7.35 13.35 6 15 6C16.65 6 18 7.35 18 9C18 10.65 16.65 12 15 12Z" fill="#EC1C24"/>
<path d="M24.45 16.65C24 17.55 23.55 18.45 22.95 19.35C25.5 20.25 27 21.45 27 22.5C27 24.3 22.2 27 15 27C7.8 27 3 24.3 3 22.5C3 21.45 4.5 20.25 7.05 19.2C6.45 18.3 6 17.4 5.55 16.5C2.1 18 0 20.1 0 22.5C0 26.7 6.3 30 14.7 30C22.2 30 30 27.45 30 22.5C30 20.1 27.9 18 24.45 16.65Z" fill="#EC1C24"/>
</g>
<defs>
<clipPath id="clip0_2_457">
<rect width="30" height="30" fill="white"/>
</clipPath>
</defs>
</svg>
