<svg width="125" height="164" viewBox="0 0 125 164" fill="none" xmlns="http://www.w3.org/2000/svg">
<path d="M105.425 54.7556C105.425 56.1344 105.425 57.3162 105.229 58.6949C104.837 64.4068 103.27 69.7248 101.114 74.6489C100.135 76.6185 99.1552 78.5881 97.9796 80.3608C89.5548 93.7543 74.6646 102.815 57.6191 102.815C50.3699 102.815 43.5125 101.239 37.2429 98.2844C21.1771 90.6029 10.0094 74.058 10.0094 54.7556C10.0094 36.0442 20.7852 19.6963 36.4592 11.8177C35.2837 13.3935 34.1081 15.1661 33.1285 16.9388C33.1285 17.1357 32.9326 17.1357 32.9326 17.3327C32.3448 17.9236 31.757 18.3175 31.1693 18.9084C30.3856 19.4993 29.7978 20.2871 29.0141 21.075C28.8182 21.272 28.6222 21.4689 28.6222 21.6659C28.4263 21.8628 28.2304 22.0598 28.2304 22.2568L27.4467 23.0446C26.8589 23.6355 26.4671 24.2264 26.0752 24.8173C24.116 27.3778 22.5486 30.3322 21.1771 33.2867C20.9812 33.6806 20.9812 33.8776 20.7852 34.2715C20.5893 34.6654 20.5893 35.0594 20.3934 35.2563C19.8056 35.6502 19.8056 35.8472 19.8056 36.0442L19.2178 37.8168C19.0219 38.2108 19.0219 38.6047 18.826 38.9986C18.826 39.1956 18.6301 39.3925 18.6301 39.5895C18.6301 39.9834 18.4341 40.3774 18.4341 40.7713C18.2382 41.7561 17.8464 42.9379 17.8464 44.1196C17.8464 44.5136 17.8464 44.7105 17.6504 45.1045V50.0285C17.6504 63.0281 23.5282 74.6489 32.9326 82.3304C40.1818 88.2393 49.3903 91.7846 59.3824 91.7846C68.395 91.7846 76.8197 88.8302 83.6771 83.9061C88.7711 80.3608 92.8856 75.6337 95.8244 70.1187C96.2163 69.3309 96.6081 68.74 97 67.9521C99.3511 62.8311 100.723 57.3161 100.918 51.4073V50.0285C100.918 48.6498 100.918 47.271 100.723 45.8923L100.918 46.0893C101.506 46.6802 102.094 47.271 102.878 47.665C103.465 46.6802 104.053 45.6953 104.837 44.9075C105.229 46.6802 105.425 48.6498 105.621 50.4225C105.229 51.9982 105.425 53.3769 105.425 54.7556Z" fill="#EC1C24"/>
<path d="M100.723 50.0285V51.4073C100.723 59.8767 97.1959 66.9673 96.8041 67.9521C96.4122 68.74 96.0204 69.3309 95.6285 70.1187C92.6897 75.6337 88.3793 80.3608 83.4812 83.9061C76.6238 88.8302 68.199 91.7846 59.1865 91.7846C49.1943 91.7846 39.9859 88.2393 32.7367 82.3304C23.3323 74.6489 17.4545 63.0281 17.4545 50.0285V45.1044C17.4545 44.7105 17.4545 44.5136 17.6505 44.1196C17.8464 42.9379 18.2382 41.7561 18.4342 40.5743C18.4342 40.1804 18.6301 39.7865 18.6301 39.3925C18.6301 39.1956 18.826 38.9986 18.826 38.8016C19.0219 38.4077 19.0219 38.0138 19.2179 37.6199C19.4138 37.029 19.6097 36.6351 19.8056 36.0442C19.8056 35.8472 20.0016 35.6502 20.0016 35.4533C20.1975 35.0593 20.1975 34.6654 20.3934 34.4685C20.5893 34.0745 20.5893 33.8776 20.7852 33.4836C22.1567 30.3322 23.7241 27.5748 25.6834 25.0142C26.0752 24.4234 26.663 23.8325 27.0548 23.2416C27.2508 23.0446 27.4467 22.6507 27.8385 22.4537C28.0345 22.2568 28.0345 22.0598 28.2304 21.8628C28.4263 21.6659 28.6222 21.4689 28.6222 21.272C29.21 20.4841 29.9937 19.8932 30.7774 19.1054C31.3652 18.5145 31.953 17.9236 32.5407 17.5297C32.5407 17.7266 32.3448 17.9236 32.3448 17.9236C32.3448 18.1206 32.1489 18.3175 32.1489 18.5145C29.7978 23.4385 28.2304 29.1505 27.6426 35.4533C27.4467 37.029 27.4467 38.8016 27.4467 40.5743C27.4467 62.4372 40.1818 80.1638 56.0517 80.1638H57.815C60.1661 80.1638 62.3213 79.7699 64.4765 79.179C75.2523 76.2246 83.0893 66.3764 83.0893 54.7556V53.9678C82.8934 47.0741 79.9545 40.7713 75.2523 36.4381C78.5831 36.4381 81.7179 37.029 84.6567 37.8168C90.5345 39.3925 95.8244 42.15 100.331 45.6953L100.527 45.8923C100.527 47.271 100.723 48.6498 100.723 50.0285Z" fill="#F6921E"/>
<path d="M100.723 50.0286V51.4074C100.723 60.4677 96.8041 67.9523 96.8041 68.1492C96.4122 68.9371 96.0204 69.528 95.6285 70.3158C92.6896 75.8308 88.3793 80.5579 83.4812 84.3002C76.4279 89.4212 67.8072 92.1787 58.9906 92.1787C49.3903 92.1787 39.9859 88.8303 32.5407 82.7245C22.7445 74.649 17.2586 62.8312 17.2586 50.2256C17.2586 37.62 22.9404 25.6053 32.7367 17.5298L33.1285 17.1359C33.1285 17.3328 32.9326 17.3328 32.9326 17.5298C32.9326 17.7268 32.7367 17.9237 32.7367 17.9237C23.1364 25.8022 17.8464 37.62 17.8464 50.0286C17.8464 62.6343 23.3323 74.2551 33.1285 82.3305C40.1818 88.4364 49.3903 91.7848 58.9906 91.7848C67.8072 91.7848 76.036 89.0273 83.2853 83.9062C88.1834 80.3609 92.4937 75.4368 95.4326 70.1189C95.8244 69.331 96.2163 68.7401 96.6081 67.9523C96.6081 67.9523 100.723 60.2707 100.527 51.4074V50.0286C100.527 48.6499 100.527 47.2712 100.331 46.0894V45.8924L100.527 46.0894L100.723 46.2864V50.0286Z" fill="#F6921E"/>
<path d="M89.3589 24.0294C89.3589 24.0294 55.268 17.5296 39.3981 47.271C39.3981 47.271 42.141 26.7868 66.4357 17.3326L61.5376 8.27234C61.5376 8.27234 71.3338 -0.590986 88.3793 1.77257L89.3589 24.0294Z" fill="#EC1C24"/>
<path d="M47.2351 39.7865C47.2351 39.7865 60.7539 21.8629 91.9059 26.59L91.5141 16.151C91.5141 16.151 104.445 15.757 115.025 24.8173L102.094 44.5136C102.094 44.5136 93.2774 34.0746 74.8605 33.8776C67.2194 33.6806 58.011 34.6655 47.2351 39.7865Z" fill="#F6921E"/>
<path d="M54.4843 46.6802C54.4843 46.6802 51.5454 47.2711 51.7413 45.8923C51.7413 45.3015 52.1332 45.1045 52.3291 45.3015C52.3291 45.1045 51.7413 44.3166 53.1128 43.9227C53.5047 43.3318 53.8965 42.7409 54.0924 42.347C54.2884 41.9531 54.4843 41.3622 55.6598 41.7561C56.8354 41.9531 58.0109 43.1349 58.2069 43.5288C58.7946 43.5288 59.5783 43.7258 59.3824 43.7258L58.9906 44.1197C58.9906 44.1197 59.3824 44.3166 58.2069 44.3166C58.2069 44.5136 58.4028 44.7106 58.5987 44.7106C58.7946 44.9075 58.5987 44.9075 58.5987 45.1045C58.5987 45.1045 58.7946 45.6954 58.2069 45.4984C57.6191 45.3015 57.6191 45.1045 57.4232 45.1045C57.2272 45.1045 56.8354 45.1045 56.8354 45.3015C56.8354 45.4984 57.4232 45.8923 56.8354 45.8923C56.6395 46.0893 57.0313 46.2863 56.8354 46.2863C56.6395 46.4832 55.268 47.4681 54.6802 47.665C54.0924 47.665 53.8965 47.468 53.8965 47.2711C53.8965 47.0741 54.2884 46.8772 54.6802 46.8772C54.4843 46.8772 54.6802 46.6802 54.4843 46.6802Z" fill="#EC1C24"/>
<path d="M54.2884 49.8316C54.0925 49.8316 53.1128 49.2407 53.7006 49.0437C54.0925 48.6498 56.0517 47.468 56.4436 47.2711C56.8354 47.0741 57.4232 47.665 56.8354 48.0589C56.2476 48.6498 54.2884 49.8316 54.2884 49.8316Z" fill="#EC1C24"/>
<path d="M57.2272 48.4529C57.2272 48.059 57.6191 46.8772 57.6191 46.6803C57.6191 46.4833 58.5987 46.2863 58.4028 47.4681C58.0109 48.4529 57.2272 48.8469 57.2272 48.4529Z" fill="#EC1C24"/>
<path d="M58.5987 46.0892C58.5987 46.0892 64.0846 45.8923 64.4765 46.0892C64.8683 46.2862 66.8276 49.2407 66.2398 51.8012C65.8479 54.3617 65.0642 54.9526 61.5376 55.3465C61.5376 54.5586 61.3417 52.3921 60.9498 51.8012C60.558 51.2103 59.3824 49.8315 58.9906 49.8315C58.9906 50.4224 58.7947 52.1951 58.7947 52.1951C58.7947 52.1951 57.0313 52.3921 56.8354 51.9981V49.2407C56.8354 49.2407 58.4028 47.8619 58.5987 47.468C58.7947 47.665 58.9906 48.4528 60.7539 48.2558C60.7539 48.4528 58.5987 48.6498 58.5987 46.0892Z" fill="#EC1C24"/>
<path d="M56.4436 48.6498C56.4436 48.6498 54.6802 50.0285 54.2884 50.4224C54.0925 50.8164 53.8965 52.3921 56.0517 52.3921C56.4436 51.4073 56.4436 48.6498 56.4436 48.6498Z" fill="#EC1C24"/>
<path d="M52.3291 50.8164C51.7414 50.8164 51.3495 50.6195 51.3495 50.2255C51.3495 49.8316 52.1332 49.2407 52.721 49.4377C53.1128 49.6346 54.0925 49.8316 54.0925 51.6043C54.4843 51.9982 55.4639 52.7861 56.8354 52.7861C58.2069 52.7861 58.9906 52.786 58.9906 53.18V55.7405C58.9906 55.7405 57.4232 55.7405 53.5047 52.983C53.1128 52.5891 52.9169 52.1952 52.9169 51.6043C52.9169 51.0134 52.5251 50.8164 52.3291 50.8164Z" fill="#EC1C24"/>
<path d="M51.1536 51.0133C50.5658 51.0133 48.6066 52.589 49.978 53.1799L50.7617 52.392C50.7617 52.392 50.3699 53.3769 51.1536 53.5738C51.9373 53.7708 51.5454 53.1799 51.9373 53.1799C52.1332 53.5738 52.1332 53.7708 52.5251 53.7708C52.9169 53.7708 52.9169 52.589 52.5251 51.9981C52.3291 51.4072 51.9373 51.0133 51.1536 51.0133Z" fill="#EC1C24"/>
<path d="M59.3824 51.2103V56.3314C59.3824 56.3314 60.9498 55.7405 61.1458 55.3465C61.1458 54.5587 60.7539 51.2103 59.3824 51.2103Z" fill="#EC1C24"/>
<path d="M55.268 54.5586C55.268 54.5586 57.2273 55.9373 58.4028 56.3313C58.2069 56.5282 57.4232 57.71 57.0313 57.513C56.8354 57.513 55.4639 55.5434 55.268 54.5586Z" fill="#EC1C24"/>
<path d="M45.6677 56.5283H48.4106V57.5131H45.8636L45.6677 56.5283Z" fill="#EC1C24"/>
<path d="M74.8605 55.9375H63.6928L65.4561 57.3162H74.8605V55.9375Z" fill="#EC1C24"/>
<path d="M61.5376 55.9375C61.7335 55.7406 63.105 56.7254 62.7131 56.9223C62.3213 57.1193 58.7946 58.498 58.5987 58.498C58.2069 58.3011 58.4028 57.5132 58.7946 57.3163C58.9906 57.1193 60.9498 56.5284 61.5376 55.9375Z" fill="#EC1C24"/>
<path d="M57.6191 58.3009C57.2273 58.104 55.0721 60.2706 56.0517 60.4675C57.0313 60.6645 59.3824 61.0584 59.9702 61.4524C60.558 61.2554 60.9498 60.6645 60.9498 60.4675C61.3417 60.4675 61.9294 61.0584 62.5172 60.8615C63.105 60.6645 65.8479 58.6949 65.8479 58.3009C65.2602 57.907 64.0846 57.1192 63.4968 57.1192C63.105 56.9222 59.5783 59.0888 57.6191 58.3009Z" fill="#EC1C24"/>
<path d="M56.4435 61.0584C56.6395 61.0584 59.5783 62.0432 60.1661 62.0432C60.9498 61.8462 60.9498 61.2553 61.3417 61.2553C61.7335 61.2553 61.9294 61.6493 62.5172 61.2553C63.105 60.8614 64.4765 59.6796 64.6724 59.4827C64.6724 59.8766 64.6724 61.0584 62.1254 62.2401C59.5783 63.4219 53.5047 65.1946 53.3087 65.9824C53.5047 65.9824 54.2884 65.7855 54.8761 65.5885C55.268 65.7855 55.8558 66.5733 55.6598 67.9521C55.4639 69.3308 54.4843 71.4974 54.4843 72.0883V75.8306C54.4843 76.0275 55.0721 77.8002 54.2884 77.6032C53.5047 77.4063 53.1128 77.4063 52.721 77.6032C52.3291 77.6032 51.7414 78.1941 51.3495 77.9972C50.7617 77.9972 49.978 77.6032 49.978 77.4063C49.978 77.2093 50.5658 77.2093 51.1536 77.0124C51.7414 76.8154 51.9373 76.2245 52.9169 75.8306C52.9169 75.2397 52.5251 70.3156 52.5251 69.3308C52.5251 68.346 52.1332 66.1794 52.721 65.3915C53.1128 64.2098 55.4639 60.8614 56.4435 61.0584Z" fill="#EC1C24"/>
<path d="M60.1661 63.8159C60.1661 64.2099 61.9294 68.5431 62.7131 68.5431C63.4968 68.5431 70.7461 66.9673 72.1175 67.5582C72.5094 68.1491 73.2931 69.1339 73.2931 69.7248C73.2931 69.7248 73.489 71.1036 73.2931 71.3005C73.489 71.3005 74.0768 71.1036 74.2727 70.7096C74.4686 70.3157 74.2727 68.3461 74.2727 67.9522C74.2727 67.5582 75.2523 65.7856 74.0768 65.9825C72.9012 65.9825 69.5705 65.9825 68.395 65.7856C67.4153 65.5886 64.8683 64.9977 64.2805 65.3916C63.6928 65.7856 62.9091 66.7704 62.9091 66.9674C62.7131 66.9674 62.5172 66.7704 62.9091 65.9825C63.105 65.1947 64.0846 63.0281 63.8887 61.8463C63.3009 62.0433 60.1661 63.8159 60.1661 63.8159Z" fill="#EC1C24"/>
<path d="M56.0517 56.9222C56.0517 57.1191 56.2476 57.5131 56.4436 57.71L50.7617 57.3161C50.7617 57.3161 50.174 56.9222 50.3699 56.7252L56.0517 56.9222Z" fill="#EC1C24"/>
<path d="M49.7821 56.5283H55.4639C55.4639 56.5283 55.0721 55.9374 54.8762 55.5435H49.5862C49.5862 55.5435 48.9984 55.5435 48.9984 56.7252C48.9984 56.9222 49.3903 57.3161 49.7821 56.5283Z" fill="#EC1C24"/>
<path d="M44.2962 57.5131H45.4718C45.4718 57.5131 45.8636 57.3161 45.4718 56.9222C45.0799 56.5283 44.2962 56.1343 44.884 55.3465C44.2962 55.3465 43.5125 55.1495 43.7084 56.9222H43.1207C43.1207 56.9222 42.9247 55.9374 41.5533 55.9374C40.1818 55.9374 36.8511 57.3161 36.8511 57.3161C36.8511 57.3161 40.5736 58.3009 41.5533 58.3009C42.5329 58.3009 43.1207 57.3161 43.1207 57.3161H43.5125C43.5125 57.3161 43.7084 58.104 43.9044 58.3009V59.4827C43.9044 59.4827 43.3166 59.6797 43.5125 60.2705C43.5125 60.8614 43.9044 60.8614 44.1003 60.8614C44.2962 60.8614 44.2962 60.6645 44.884 60.6645C45.0799 60.4675 44.884 59.6797 44.4921 59.4827V58.6948C44.4921 58.6948 44.884 58.3009 44.884 58.104C44.6881 57.71 44.2962 57.907 44.2962 57.5131Z" fill="#EC1C24"/>
<path d="M51.1536 63.0281C51.5454 62.8312 51.7413 62.2403 51.7413 62.2403V58.8919C51.7413 58.1041 50.3699 57.5132 50.1739 57.5132C49.978 57.7101 49.5862 57.9071 49.3903 57.9071C48.9984 57.9071 48.8025 57.9071 48.4106 57.5132C47.2351 57.5132 46.6473 58.8919 46.6473 59.0889C46.6473 59.2858 46.4514 61.8464 46.6473 62.2403C46.6473 62.6342 47.0392 63.0281 47.2351 63.2251C47.0392 64.013 45.8636 68.5431 47.431 69.134V69.9218H51.3495V69.134C52.525 68.1492 51.5454 64.2099 51.1536 63.0281ZM46.6473 58.8919C46.6473 58.695 47.2351 57.7101 48.0188 57.7101C48.4106 58.1041 48.8025 58.1041 49.1943 58.1041C49.5862 58.1041 49.978 57.7101 50.1739 57.7101C50.5658 57.9071 51.3495 58.301 51.3495 58.8919V62.2403C51.3495 62.4373 51.1536 62.6342 50.9576 62.8312H50.1739V61.2555H47.6269V62.6342H47.0392C46.8432 62.4373 46.6473 62.2403 46.6473 61.8464V58.8919ZM49.3903 68.1492H48.6066C48.4106 68.1492 48.2147 67.9522 48.2147 67.7552C48.2147 67.5583 48.4106 67.3613 48.6066 67.3613H49.3903C49.5862 67.3613 49.7821 67.5583 49.7821 67.7552C49.7821 67.9522 49.5862 68.1492 49.3903 68.1492ZM50.9576 68.5431L48.9984 66.3765L47.2351 68.5431C46.0595 68.1492 46.8432 64.6038 47.2351 63.0281H50.9576C51.3495 64.6038 51.9373 67.9522 50.9576 68.5431Z" fill="#EC1C24"/>
<path d="M50.3699 64.6038C50.7617 64.0129 50.174 63.619 50.174 63.619H47.8229C47.0392 63.619 47.2351 64.6038 47.2351 64.6038L48.6066 65.7856C48.9984 65.7856 49.978 65.1947 50.3699 64.6038Z" fill="#EC1C24"/>
<path d="M49.3903 65.9826L50.7617 67.5583C50.7617 67.5583 50.5658 65.5887 50.5658 64.9978C50.3699 65.1948 49.3903 65.9826 49.3903 65.9826Z" fill="#EC1C24"/>
<path d="M47.431 64.9978C47.431 65.5887 47.2351 67.5583 47.2351 67.5583L48.6066 65.9826C48.6066 65.9826 47.8229 65.1948 47.431 64.9978Z" fill="#EC1C24"/>
<path d="M50.174 60.8615H50.3699V60.6645C50.3699 60.4675 50.174 60.4675 50.174 60.4675H48.0188C47.8229 60.4675 47.8229 60.6645 47.8229 60.6645V60.8615H48.0188H50.174Z" fill="#EC1C24"/>
<path d="M47.0392 69.9219H46.8432V70.1188C46.8432 70.3158 47.0392 70.3158 47.0392 70.3158H50.9577C51.1536 70.3158 51.1536 70.1188 51.1536 70.1188V69.9219H50.9577H47.0392Z" fill="#EC1C24"/>
<path d="M33.9122 55.9374C33.9122 55.9374 18.4341 21.8629 54.4843 0L63.105 15.954C63.105 15.954 57.2273 17.9236 50.9577 23.4386C44.1003 29.3475 36.8511 39.1956 33.9122 55.9374Z" fill="#F6921E"/>
<path d="M42.1238 113.063H1.37147C0.587776 113.063 0 113.654 0 114.442V117.593C0 118.381 0.587776 118.972 1.37147 118.972H31.7398V135.911C30.9561 134.729 29.9765 133.547 28.8009 132.365C25.2743 128.623 21.3558 126.85 17.4373 126.85C14.3025 126.85 11.5596 128.426 9.40439 131.381C7.64107 133.744 6.66144 136.699 6.66144 139.259C6.66144 142.017 7.05329 145.365 9.20847 148.516C11.7555 152.259 15.674 153.44 19.2006 153.44C23.9028 153.44 27.8213 150.092 27.8213 145.956C27.8213 143.395 26.6458 141.426 24.2947 140.244L22.1395 139.062V142.41C21.9436 143.395 20.1802 144.774 18.4169 144.774C16.8495 144.774 15.2821 144.183 14.4984 143.198C13.9107 142.41 13.5188 141.426 13.7147 140.441C13.7147 139.259 14.1066 138.274 15.0862 137.092C16.0658 135.911 17.0455 135.32 18.6129 135.32C22.7273 135.32 26.058 137.289 28.8009 141.229C30.9561 144.577 32.1317 147.925 32.1317 151.471V159.94L38.2053 163.682C38.4013 163.879 38.5972 163.879 38.7931 163.879C39.5768 163.879 40.1646 163.288 40.1646 162.501V118.972H42.5157C43.2994 118.972 43.8871 118.381 43.8871 117.593V114.442C43.2994 113.654 42.7116 113.063 42.1238 113.063Z" fill="#EC1C24"/>
<path d="M123.433 113.063H71.9044C71.1207 113.063 70.5329 113.654 70.5329 114.442V120.154C65.6348 114.836 61.1285 112.275 57.0141 112.275C53.0956 112.275 49.9608 113.26 47.2179 115.23C44.4749 117.396 43.1035 119.957 43.1035 122.911C43.1035 131.971 53.2915 131.971 55.6426 130.593C56.0345 130.396 56.6223 130.002 57.406 130.002C59.3652 130.002 60.1489 131.577 60.1489 132.956C60.1489 135.123 57.21 136.895 53.6834 136.895C51.7241 136.895 50.3527 136.305 49.569 135.123L48.0016 132.759L46.826 135.517C46.6301 136.108 46.2382 136.895 46.2382 137.88C46.2382 140.047 47.2179 142.017 49.1771 143.592C51.1364 145.168 53.2915 145.956 55.6426 145.956C59.5611 145.956 62.6959 144.577 64.8511 141.82C66.6144 139.653 67.3981 136.895 67.3981 133.941C67.3981 132.168 66.8103 130.593 65.4389 128.623C63.8715 126.26 61.9122 125.078 59.5611 125.078C58.7774 125.078 57.7978 125.275 56.6223 125.669C56.2304 125.472 55.6426 125.669 55.4467 125.669C55.0549 125.669 54.4671 125.472 54.0752 124.881C53.6834 124.487 53.2915 123.896 53.2915 122.911C53.2915 120.745 55.4467 118.381 58.9734 118.381H59.1693C61.5204 118.381 63.8715 119.563 66.2226 121.926C67.9859 123.699 69.5533 125.472 70.5329 127.441V159.743L76.6066 163.288C76.8025 163.485 76.9984 163.485 77.1944 163.485C77.9781 163.485 78.5658 162.895 78.5658 162.107V118.775H87.7743V146.744L95.0235 149.698H95.4154C96.0031 149.698 96.5909 149.107 96.7868 148.516V148.319C97.9624 140.047 101.685 134.335 107.759 130.79V132.365C107.759 133.547 107.759 136.502 107.955 138.274C107.955 139.259 107.955 139.85 108.15 140.441C108.15 143.592 108.542 148.713 109.718 152.259C111.677 159.152 115.204 160.728 117.751 160.925H117.947C119.514 160.925 120.494 160.531 121.277 159.743C121.669 159.349 122.257 158.364 122.257 157.183C122.257 155.804 122.061 154.819 121.669 154.228L121.082 153.243L119.906 153.44C118.534 153.834 118.143 153.834 118.143 153.637H117.947C117.555 153.637 117.555 153.637 117.359 153.44C116.967 153.243 116.183 152.456 115.596 150.289C115.204 148.713 115.008 146.35 115.008 145.168C115.008 136.108 116.967 129.214 119.71 127.638H119.906C120.298 127.441 120.69 127.047 120.69 126.456C120.69 126.26 120.69 126.063 120.494 125.866V125.669C119.122 122.911 116.183 120.942 112.069 119.76H111.285C108.15 120.351 104.232 122.517 99.3339 126.653C98.1583 127.638 96.9828 128.82 95.8072 129.805V118.578H123.629C124.412 118.578 125 117.987 125 117.199V114.048C124.804 113.654 124.216 113.063 123.433 113.063Z" fill="#EC1C24"/>
</svg>
