<svg width="30" height="30" viewBox="0 0 30 30" fill="none" xmlns="http://www.w3.org/2000/svg">
<g clip-path="url(#clip0_2_462)">
<path d="M28.0052 15.3885C27.8845 15.1416 27.8845 14.8583 28.0052 14.6114L29.1241 12.3225C29.747 11.048 29.2535 9.52897 28.0004 8.86412L25.7498 7.66998C25.507 7.54119 25.3405 7.31198 25.293 7.04133L24.8529 4.53184C24.6078 3.13462 23.3153 2.19572 21.911 2.39441L19.3884 2.75124C19.1161 2.78968 18.8469 2.70214 18.6493 2.51107L16.8182 0.739671C15.7987 -0.24669 14.2014 -0.246749 13.1819 0.739671L11.3507 2.51124C11.1531 2.70237 10.8839 2.78974 10.6117 2.75142L8.08905 2.39458C6.68427 2.19578 5.39229 3.13479 5.14719 4.53201L4.70704 7.04139C4.65952 7.31209 4.49306 7.54125 4.2503 7.6701L1.99973 8.86423C0.746651 9.52903 0.25306 11.0482 0.876025 12.3226L1.99487 14.6115C2.11557 14.8585 2.11557 15.1418 1.99487 15.3887L0.875967 17.6776C0.253002 18.952 0.746593 20.4711 1.99967 21.1359L4.25024 22.3301C4.49306 22.4588 4.65952 22.6881 4.70704 22.9587L5.14719 25.4682C5.37032 26.7401 6.46097 27.6322 7.71446 27.6321C7.83792 27.6321 7.96319 27.6234 8.08911 27.6056L10.6117 27.2487C10.8838 27.2101 11.1532 27.2978 11.3508 27.4889L13.1819 29.2603C13.6918 29.7535 14.3458 30.0001 15 30C15.6541 30 16.3085 29.7534 16.8182 29.2603L18.6493 27.4889C18.8469 27.2978 19.1162 27.2105 19.3884 27.2487L21.911 27.6056C23.316 27.8043 24.6078 26.8654 24.8529 25.4681L25.2931 22.9588C25.3406 22.6881 25.5071 22.4589 25.7498 22.3301L28.0004 21.1359C29.2535 20.4711 29.747 18.952 29.1241 17.6775L28.0052 15.3885ZM11.5394 7.21377C13.2886 7.21377 14.7116 8.63683 14.7116 10.386C14.7116 12.1351 13.2886 13.5582 11.5394 13.5582C9.79031 13.5582 8.36725 12.1351 8.36725 10.386C8.36725 8.63683 9.79031 7.21377 11.5394 7.21377ZM9.90211 21.3213C9.73318 21.4902 9.51176 21.5747 9.29039 21.5747C9.06903 21.5747 8.84754 21.4903 8.67868 21.3213C8.34083 20.9835 8.34083 20.4357 8.67868 20.0978L20.0979 8.67861C20.4357 8.34076 20.9835 8.34076 21.3214 8.67861C21.6592 9.01646 21.6592 9.56425 21.3214 9.9021L9.90211 21.3213ZM18.4605 22.7863C16.7114 22.7863 15.2883 21.3632 15.2883 19.6141C15.2883 17.8649 16.7114 16.4419 18.4605 16.4419C20.2096 16.4419 21.6327 17.8649 21.6327 19.6141C21.6327 21.3632 20.2096 22.7863 18.4605 22.7863Z" fill="#EC1C24"/>
<path d="M18.4605 18.1722C17.6654 18.1722 17.0186 18.8191 17.0186 19.6141C17.0186 20.4092 17.6654 21.056 18.4605 21.056C19.2555 21.056 19.9024 20.4092 19.9024 19.6141C19.9024 18.8191 19.2555 18.1722 18.4605 18.1722Z" fill="#EC1C24"/>
<path d="M11.5394 8.94403C10.7444 8.94403 10.0976 9.59084 10.0976 10.3859C10.0976 11.181 10.7444 11.8278 11.5394 11.8278C12.3345 11.8278 12.9814 11.181 12.9814 10.3859C12.9813 9.5909 12.3345 8.94403 11.5394 8.94403Z" fill="#EC1C24"/>
</g>
<defs>
<clipPath id="clip0_2_462">
<rect width="30" height="30" fill="white"/>
</clipPath>
</defs>
</svg>
