<svg width="30" height="30" viewBox="0 0 30 30" fill="none" xmlns="http://www.w3.org/2000/svg">
<path d="M30 15C30 6.72884 23.2712 0 15 0C6.72884 0 0 6.72884 0 15C0 17.6956 0.717511 20.3202 2.08 22.6244L0.0551471 29.9446L7.37562 27.92C9.67981 29.2825 12.3044 30 15 30C23.2712 30 30 23.2712 30 15ZM12.6982 11.509H10.3964C10.3964 8.97039 12.4614 6.90537 15 6.90537C17.5386 6.90537 19.6036 8.97039 19.6036 11.509C19.6036 12.7974 19.0581 14.0358 18.1065 14.9062L16.1509 16.6961V18.491H13.8491V15.6824L16.5525 13.208C17.0356 12.7659 17.3018 12.1626 17.3018 11.509C17.3018 10.2397 16.2693 9.20716 15 9.20716C13.7307 9.20716 12.6982 10.2397 12.6982 11.509ZM13.8491 20.7928H16.1509V23.0946H13.8491V20.7928Z" fill="#EC1C24"/>
</svg>
